<?xml version="1.0" encoding="UTF-8"?>
<svg version="1.1" xmlns="http://www.w3.org/2000/svg" width="350" height="362">
<path d="M0 0 C115.5 0 231 0 350 0 C350 119.46 350 238.92 350 362 C234.5 362 119 362 0 362 C0 242.54 0 123.08 0 0 Z " fill="#FEFEFE" transform="translate(0,0)"/>
<path d="M0 0 C0.69895386 0.01131958 1.39790771 0.02263916 2.11804199 0.03430176 C4.32123216 0.0786149 6.51757626 0.17882488 8.71875 0.28125 C10.22386337 0.32143821 11.72908023 0.35792963 13.234375 0.390625 C16.89800685 0.47818298 20.55770895 0.61587983 24.21875 0.78125 C27.21875 7.40625 27.21875 7.40625 27.21875 10.78125 C27.87875 10.78125 28.53875 10.78125 29.21875 10.78125 C29.54875 13.09125 29.87875 15.40125 30.21875 17.78125 C38.13875 17.78125 46.05875 17.78125 54.21875 17.78125 C54.35667124 22.55230336 54.47601576 27.31643005 54.54833984 32.08789062 C54.57848462 33.7098739 54.61940941 35.33169452 54.67138672 36.953125 C54.74431613 39.28686611 54.77822489 41.61845111 54.8046875 43.953125 C54.83565521 44.67618835 54.86662292 45.39925171 54.89852905 46.14422607 C54.89990234 48.20605469 54.89990234 48.20605469 54.21875 51.78125 C51.30712891 54.14550781 51.30712891 54.14550781 48.21875 55.78125 C47.22875 56.77125 47.22875 56.77125 46.21875 57.78125 C43.47389407 57.92632695 40.83394457 57.96777423 38.09375 57.90625 C37.33964844 57.89722656 36.58554687 57.88820312 35.80859375 57.87890625 C33.94517746 57.8553187 32.08192407 57.81944719 30.21875 57.78125 C30.22566345 58.76385315 30.22566345 58.76385315 30.23271656 59.76630688 C30.34314984 75.70734371 30.42588395 91.64824745 30.47781086 107.58957195 C30.50358999 115.29870531 30.53873455 123.00758329 30.59594727 130.71655273 C30.64579164 137.43589998 30.67804314 144.15506228 30.68919247 150.87458926 C30.69570966 154.43246627 30.71101953 157.9898142 30.74740028 161.54752159 C30.78768926 165.5196561 30.78869874 169.49127353 30.78637695 173.46362305 C30.81334152 175.23200027 30.81334152 175.23200027 30.84085083 177.03610229 C30.79006942 185.0440517 30.79006942 185.0440517 27.79463196 188.90919495 C26.94459091 189.52697311 26.09454987 190.14475128 25.21875 190.78125 C24.63077637 191.53051758 24.04280273 192.27978516 23.43701172 193.05175781 C20.1266368 195.63272809 16.76002398 195.4304481 12.7265625 195.453125 C11.49122269 195.4730954 11.49122269 195.4730954 10.23092651 195.49346924 C8.49111849 195.51368927 6.75115587 195.52310428 5.01123047 195.52246094 C2.35773249 195.53120393 -0.28908784 195.60380843 -2.94140625 195.6796875 C-15.24711259 195.84493531 -15.24711259 195.84493531 -19.17285156 193.12304688 C-20.70941974 191.06978229 -21.75235599 189.12338491 -22.78125 186.78125 C-25.47730817 183.19330113 -28.15276663 180.50656241 -31.71875 177.78125 C-34.52638501 175.59844737 -37.03931366 173.51732126 -39.53125 170.96875 C-42.06430928 168.50605348 -44.56569349 167.2020773 -47.78125 165.78125 C-47.78125 165.12125 -47.78125 164.46125 -47.78125 163.78125 C-49.080625 163.3790625 -49.080625 163.3790625 -50.40625 162.96875 C-53.69916964 161.81013013 -56.69252875 160.39915161 -59.78125 158.78125 C-59.78125 158.12125 -59.78125 157.46125 -59.78125 156.78125 C-60.750625 156.513125 -61.72 156.245 -62.71875 155.96875 C-67.12051896 154.71496745 -71.44901506 153.2547993 -75.78125 151.78125 C-75.78125 151.12125 -75.78125 150.46125 -75.78125 149.78125 C-76.42191406 149.66007813 -77.06257813 149.53890625 -77.72265625 149.4140625 C-81.55452071 148.67167445 -85.2974193 147.93012099 -89.03125 146.78125 C-94.85693876 145.227733 -100.80929927 144.55983997 -106.78125 143.78125 C-106.78125 143.12125 -106.78125 142.46125 -106.78125 141.78125 C-109.09125 141.45125 -111.40125 141.12125 -113.78125 140.78125 C-114.02359375 139.78867188 -114.2659375 138.79609375 -114.515625 137.7734375 C-114.85385656 136.40096521 -115.19242347 135.02857553 -115.53125 133.65625 C-115.70736816 132.93719482 -115.88348633 132.21813965 -116.06494141 131.47729492 C-116.95861727 127.87928161 -117.89837456 124.31533605 -119.0078125 120.77734375 C-119.38679688 119.56175781 -119.76578125 118.34617187 -120.15625 117.09375 C-120.51460937 115.99675781 -120.87296875 114.89976562 -121.2421875 113.76953125 C-121.86659713 110.30813005 -121.44572495 108.83455437 -119.78125 105.78125 C-117.78125 103.46875 -117.78125 103.46875 -115.78125 101.78125 C-115.12125 101.78125 -114.46125 101.78125 -113.78125 101.78125 C-113.28625 100.29625 -113.28625 100.29625 -112.78125 98.78125 C-111.99621094 98.66007812 -111.21117187 98.53890625 -110.40234375 98.4140625 C-104.72971621 97.50922621 -99.268433 96.51404463 -93.78125 94.78125 C-92.28078125 94.33072266 -92.28078125 94.33072266 -90.75 93.87109375 C-84.66975884 92.03725955 -78.69209816 90.10336892 -72.78125 87.78125 C-71.3271875 87.3790625 -71.3271875 87.3790625 -69.84375 86.96875 C-67.5241662 85.93987617 -67.5241662 85.93987617 -66.96875 83.28125 C-66.72737824 78.77564388 -66.70102182 74.29185639 -66.78125 69.78125 C-67.40386719 70.34392578 -67.40386719 70.34392578 -68.0390625 70.91796875 C-78.04553981 79.22878777 -92.29571923 83.20034188 -105.21875 83.03125 C-105.96229736 83.02520752 -106.70584473 83.01916504 -107.47192383 83.01293945 C-120.05831206 82.78569861 -130.13328855 78.6191532 -138.96875 69.53125 C-139.566875 68.62375 -140.165 67.71625 -140.78125 66.78125 C-141.22597656 66.11867188 -141.67070312 65.45609375 -142.12890625 64.7734375 C-147.86819563 55.08538913 -146.65807419 44.63528566 -144.40625 33.96875 C-142.16567183 26.50801776 -138.63837413 20.75667009 -131.78125 16.78125 C-127.85943162 16.29658644 -124.57416014 16.72846506 -120.78125 17.78125 C-120.78125 18.44125 -120.78125 19.10125 -120.78125 19.78125 C-120.19859375 19.81863281 -119.6159375 19.85601562 -119.015625 19.89453125 C-112.0469442 20.45334056 -105.51669035 21.94115547 -98.78125 23.78125 C-98.21875 25.71875 -98.21875 25.71875 -97.78125 27.78125 C-98.27625 28.27625 -98.27625 28.27625 -98.78125 28.78125 C-99.05830788 31.04235806 -99.05830788 31.04235806 -99.09375 33.65625 C-99.13113281 34.54054687 -99.16851562 35.42484375 -99.20703125 36.3359375 C-98.99725653 38.89534406 -98.99725653 38.89534406 -97.0390625 40.58203125 C-93.33961394 42.54696327 -89.86689233 42.21978048 -85.78125 41.78125 C-82.98057935 40.94638613 -82.98057935 40.94638613 -80.78125 39.78125 C-79.79125 39.45125 -78.80125 39.12125 -77.78125 38.78125 C-77.11355561 37.11499479 -76.44711933 35.44823538 -75.78125 33.78125 C-68.73791574 24.20986183 -61.75442643 20.14110673 -50.078125 18.234375 C-39.06898659 16.91726585 -39.06898659 16.91726585 -35.64453125 19.21484375 C-35.13277344 19.87613281 -34.62101562 20.53742188 -34.09375 21.21875 C-33.52785156 21.94707031 -32.96195312 22.67539063 -32.37890625 23.42578125 C-29.89916304 27.08173518 -27.77301182 30.84150134 -25.78125 34.78125 C-25.183125 35.895 -24.585 37.00875 -23.96875 38.15625 C-22.78125 40.78125 -22.78125 40.78125 -22.78125 43.78125 C-22.12125 43.78125 -21.46125 43.78125 -20.78125 43.78125 C-19.77555436 49.63842141 -19.59794844 55.34466206 -19.59375 61.28125 C-19.58150391 62.19261719 -19.56925781 63.10398438 -19.55664062 64.04296875 C-19.54508277 69.38269762 -20.04832988 73.73010877 -21.78125 78.78125 C-22.131875 79.998125 -22.4825 81.215 -22.84375 82.46875 C-25.19296447 88.64899114 -29.6982892 93.66854777 -33.78125 98.78125 C-34.29558594 99.42835938 -34.80992187 100.07546875 -35.33984375 100.7421875 C-37.65757925 103.58700927 -40.04741925 106.33022932 -42.78125 108.78125 C-43.44125 108.78125 -44.10125 108.78125 -44.78125 108.78125 C-45.27625 110.26625 -45.27625 110.26625 -45.78125 111.78125 C-47.42946244 112.81138277 -49.09628702 113.81239628 -50.78125 114.78125 C-51.11125 115.44125 -51.44125 116.10125 -51.78125 116.78125 C-51.12125 116.884375 -50.46125 116.9875 -49.78125 117.09375 C-45.94283991 117.97338564 -42.45028309 119.35094896 -38.78125 120.78125 C-38.78125 121.44125 -38.78125 122.10125 -38.78125 122.78125 C-37.73904297 122.92240234 -37.73904297 122.92240234 -36.67578125 123.06640625 C-33.18752344 123.92787883 -30.56383977 125.40099887 -27.46875 127.21875 C-26.40011719 127.83621094 -25.33148438 128.45367187 -24.23046875 129.08984375 C-23.42222656 129.64800781 -22.61398438 130.20617187 -21.78125 130.78125 C-21.78125 131.44125 -21.78125 132.10125 -21.78125 132.78125 C-21.1625 133.090625 -20.54375 133.4 -19.90625 133.71875 C-18.53125 134.40625 -17.15625 135.09375 -15.78125 135.78125 C-15.78862434 135.13410034 -15.79599869 134.48695068 -15.8035965 133.82019043 C-15.98048476 118.05343248 -16.11275757 102.28702094 -16.19574738 86.51951599 C-16.23695054 78.89432072 -16.29309542 71.26978888 -16.38476562 63.64501953 C-16.46465371 56.99705615 -16.5161507 50.34957333 -16.53395796 43.70114326 C-16.5443634 40.18248098 -16.56870833 36.66519311 -16.62709045 33.14697266 C-16.69182847 29.21361074 -16.69315968 25.28157742 -16.68945312 21.34765625 C-16.71821533 20.18887466 -16.74697754 19.03009308 -16.77661133 17.8361969 C-16.71586142 11.87244142 -16.17052223 8.45319487 -11.96484375 4.0526123 C-8.08962488 0.57698789 -5.28074324 -0.17034656 0 0 Z " fill="#EF4334" transform="translate(220.78125,82.21875)"/>
<path d="M0 0 C0.69895386 0.01131958 1.39790771 0.02263916 2.11804199 0.03430176 C4.32123216 0.0786149 6.51757626 0.17882488 8.71875 0.28125 C10.22386337 0.32143821 11.72908023 0.35792963 13.234375 0.390625 C16.89800685 0.47818298 20.55770895 0.61587983 24.21875 0.78125 C27.21875 7.40625 27.21875 7.40625 27.21875 10.78125 C27.87875 10.78125 28.53875 10.78125 29.21875 10.78125 C29.54875 13.09125 29.87875 15.40125 30.21875 17.78125 C38.13875 17.78125 46.05875 17.78125 54.21875 17.78125 C54.35667124 22.55230336 54.47601576 27.31643005 54.54833984 32.08789062 C54.57848462 33.7098739 54.61940941 35.33169452 54.67138672 36.953125 C54.74431613 39.28686611 54.77822489 41.61845111 54.8046875 43.953125 C54.83565521 44.67618835 54.86662292 45.39925171 54.89852905 46.14422607 C54.89990234 48.20605469 54.89990234 48.20605469 54.21875 51.78125 C51.30712891 54.14550781 51.30712891 54.14550781 48.21875 55.78125 C47.22875 56.77125 47.22875 56.77125 46.21875 57.78125 C43.47389407 57.92632695 40.83394457 57.96777423 38.09375 57.90625 C37.33964844 57.89722656 36.58554687 57.88820312 35.80859375 57.87890625 C33.94517746 57.8553187 32.08192407 57.81944719 30.21875 57.78125 C30.22566345 58.76385315 30.22566345 58.76385315 30.23271656 59.76630688 C30.34314984 75.70734371 30.42588395 91.64824745 30.47781086 107.58957195 C30.50358999 115.29870531 30.53873455 123.00758329 30.59594727 130.71655273 C30.64579164 137.43589998 30.67804314 144.15506228 30.68919247 150.87458926 C30.69570966 154.43246627 30.71101953 157.9898142 30.74740028 161.54752159 C30.78768926 165.5196561 30.78869874 169.49127353 30.78637695 173.46362305 C30.81334152 175.23200027 30.81334152 175.23200027 30.84085083 177.03610229 C30.79006942 185.0440517 30.79006942 185.0440517 27.79463196 188.90919495 C26.94459091 189.52697311 26.09454987 190.14475128 25.21875 190.78125 C24.63077637 191.53051758 24.04280273 192.27978516 23.43701172 193.05175781 C20.1266368 195.63272809 16.76002398 195.4304481 12.7265625 195.453125 C11.49122269 195.4730954 11.49122269 195.4730954 10.23092651 195.49346924 C8.49111849 195.51368927 6.75115587 195.52310428 5.01123047 195.52246094 C2.35773249 195.53120393 -0.28908784 195.60380843 -2.94140625 195.6796875 C-15.24711259 195.84493531 -15.24711259 195.84493531 -19.17285156 193.12304688 C-20.70941974 191.06978229 -21.75235599 189.12338491 -22.78125 186.78125 C-25.47730817 183.19330113 -28.15276663 180.50656241 -31.71875 177.78125 C-34.52638501 175.59844737 -37.03931366 173.51732126 -39.53125 170.96875 C-42.06430928 168.50605348 -44.56569349 167.2020773 -47.78125 165.78125 C-47.78125 165.12125 -47.78125 164.46125 -47.78125 163.78125 C-48.6475 163.513125 -49.51375 163.245 -50.40625 162.96875 C-53.69916964 161.81013013 -56.69252875 160.39915161 -59.78125 158.78125 C-59.78125 158.12125 -59.78125 157.46125 -59.78125 156.78125 C-60.750625 156.513125 -61.72 156.245 -62.71875 155.96875 C-67.12051896 154.71496745 -71.44901506 153.2547993 -75.78125 151.78125 C-75.78125 151.12125 -75.78125 150.46125 -75.78125 149.78125 C-77.7303125 149.4409375 -77.7303125 149.4409375 -79.71875 149.09375 C-87.55034046 147.5455135 -95.15105154 145.10040545 -102.78125 142.78125 C-102.78125 142.45125 -102.78125 142.12125 -102.78125 141.78125 C-97.46776649 141.43471847 -93.34702342 142.34738217 -88.29296875 143.98046875 C-84.82521947 145.08604978 -81.3189496 145.92958158 -77.78125 146.78125 C-77.78125 147.44125 -77.78125 148.10125 -77.78125 148.78125 C-76.78480469 148.87148437 -75.78835937 148.96171875 -74.76171875 149.0546875 C-70.41963859 149.6807498 -66.9464187 151.37865386 -63.09375 153.40625 C-62.05045532 153.94366821 -62.05045532 153.94366821 -60.98608398 154.49194336 C-49.07217188 160.68619292 -38.25190931 167.17192804 -28.78125 176.78125 C-27.68353704 177.86974693 -26.58450796 178.95691774 -25.484375 180.04296875 C-24.33330219 181.18486444 -23.18226094 182.32679195 -22.03125 183.46875 C-21.44214844 184.04947266 -20.85304688 184.63019531 -20.24609375 185.22851562 C-15.89415179 189.55544643 -15.89415179 189.55544643 -14.78125 191.78125 C-3.23125 192.11125 8.31875 192.44125 20.21875 192.78125 C20.21875 147.90125 20.21875 103.02125 20.21875 56.78125 C28.46875 56.78125 36.71875 56.78125 45.21875 56.78125 C45.54875 47.21125 45.87875 37.64125 46.21875 27.78125 C37.63875 27.78125 29.05875 27.78125 20.21875 27.78125 C17.21875 19.78125 17.21875 19.78125 16.15625 16.84375 C15.40226615 14.61084215 15.40226615 14.61084215 13.21875 13.78125 C0.34875 13.28625 0.34875 13.28625 -12.78125 12.78125 C-12.78125 59.64125 -12.78125 106.50125 -12.78125 154.78125 C-14.43125 154.78125 -16.08125 154.78125 -17.78125 154.78125 C-17.78125 154.12125 -17.78125 153.46125 -17.78125 152.78125 C-18.77125 152.78125 -19.76125 152.78125 -20.78125 152.78125 C-20.78125 151.79125 -20.78125 150.80125 -20.78125 149.78125 C-21.77125 149.78125 -22.76125 149.78125 -23.78125 149.78125 C-23.86246094 149.17539063 -23.94367188 148.56953125 -24.02734375 147.9453125 C-25.01953629 145.09725724 -26.23527584 144.58239989 -28.84375 143.15625 C-31.06640625 141.9296875 -31.06640625 141.9296875 -32.78125 140.78125 C-32.78125 140.12125 -32.78125 139.46125 -32.78125 138.78125 C-33.544375 138.575 -34.3075 138.36875 -35.09375 138.15625 C-38.20412454 136.99644932 -40.67945616 135.74155075 -43.53125 134.09375 C-49.39498743 130.78016985 -55.5164253 128.46870901 -61.85058594 126.22973633 C-63.85905578 125.49471543 -65.82520773 124.6461809 -67.78125 123.78125 C-68.11125 122.79125 -68.44125 121.80125 -68.78125 120.78125 C-64.32625 119.79125 -64.32625 119.79125 -59.78125 118.78125 C-59.78125 118.12125 -59.78125 117.46125 -59.78125 116.78125 C-57.30625 116.28625 -57.30625 116.28625 -54.78125 115.78125 C-54.78125 115.12125 -54.78125 114.46125 -54.78125 113.78125 C-53.3271875 113.3790625 -53.3271875 113.3790625 -51.84375 112.96875 C-50.3278125 112.3809375 -50.3278125 112.3809375 -48.78125 111.78125 C-48.28625 110.29625 -48.28625 110.29625 -47.78125 108.78125 C-45.71875 108.09375 -45.71875 108.09375 -43.78125 107.78125 C-45.247958 111.64802565 -47.25326672 112.79110559 -50.78125 114.78125 C-51.11125 115.44125 -51.44125 116.10125 -51.78125 116.78125 C-51.12125 116.884375 -50.46125 116.9875 -49.78125 117.09375 C-45.94283991 117.97338564 -42.45028309 119.35094896 -38.78125 120.78125 C-38.78125 121.44125 -38.78125 122.10125 -38.78125 122.78125 C-37.73904297 122.92240234 -37.73904297 122.92240234 -36.67578125 123.06640625 C-33.18752344 123.92787883 -30.56383977 125.40099887 -27.46875 127.21875 C-26.40011719 127.83621094 -25.33148438 128.45367187 -24.23046875 129.08984375 C-23.42222656 129.64800781 -22.61398438 130.20617187 -21.78125 130.78125 C-21.78125 131.44125 -21.78125 132.10125 -21.78125 132.78125 C-21.1625 133.090625 -20.54375 133.4 -19.90625 133.71875 C-18.53125 134.40625 -17.15625 135.09375 -15.78125 135.78125 C-15.78862434 135.13410034 -15.79599869 134.48695068 -15.8035965 133.82019043 C-15.98048476 118.05343248 -16.11275757 102.28702094 -16.19574738 86.51951599 C-16.23695054 78.89432072 -16.29309542 71.26978888 -16.38476562 63.64501953 C-16.46465371 56.99705615 -16.5161507 50.34957333 -16.53395796 43.70114326 C-16.5443634 40.18248098 -16.56870833 36.66519311 -16.62709045 33.14697266 C-16.69182847 29.21361074 -16.69315968 25.28157742 -16.68945312 21.34765625 C-16.71821533 20.18887466 -16.74697754 19.03009308 -16.77661133 17.8361969 C-16.71586142 11.87244142 -16.17052223 8.45319487 -11.96484375 4.0526123 C-8.08962488 0.57698789 -5.28074324 -0.17034656 0 0 Z " fill="#B73E30" transform="translate(220.78125,82.21875)"/>
<path d="M0 0 C0.67804688 0.18820313 1.35609375 0.37640625 2.0546875 0.5703125 C2.0546875 1.2303125 2.0546875 1.8903125 2.0546875 2.5703125 C2.63734375 2.60769531 3.22 2.64507812 3.8203125 2.68359375 C10.7889933 3.24240306 17.31924715 4.73021797 24.0546875 6.5703125 C24.6171875 8.5078125 24.6171875 8.5078125 25.0546875 10.5703125 C24.7246875 10.9003125 24.3946875 11.2303125 24.0546875 11.5703125 C23.77762962 13.83142056 23.77762962 13.83142056 23.7421875 16.4453125 C23.70480469 17.32960938 23.66742188 18.21390625 23.62890625 19.125 C23.8379198 21.6867122 23.8379198 21.6867122 25.80859375 23.37109375 C31.75192356 26.54431506 38.9379322 24.34973222 45.0546875 22.5703125 C43.42321085 27.46474245 39.2546681 29.79312663 35.0546875 32.5703125 C29.93723724 34.67212243 24.54792657 35.43441752 19.0546875 34.5703125 C16.18438881 32.77637582 14.56337112 31.58767974 13.0546875 28.5703125 C12.79269533 23.94178421 13.21672947 20.79107777 15.0546875 16.5703125 C14.36503906 16.44914062 13.67539063 16.32796875 12.96484375 16.203125 C3.45753528 14.5077202 -5.7247167 12.45776421 -14.9453125 9.5703125 C-14.9453125 10.2303125 -14.9453125 10.8903125 -14.9453125 11.5703125 C-15.6053125 11.5703125 -16.2653125 11.5703125 -16.9453125 11.5703125 C-20.72858383 31.22207935 -20.72858383 31.22207935 -14.9453125 49.5703125 C-10.55045506 55.37698943 -5.97691855 57.89612058 1.0546875 59.5703125 C1.0546875 60.2303125 1.0546875 60.8903125 1.0546875 61.5703125 C5.08895337 61.67083086 9.12271295 61.74253764 13.15795898 61.79003906 C14.5242994 61.80988517 15.89055809 61.83697164 17.2565918 61.87207031 C30.46305166 62.20235324 41.34234689 60.44987255 51.8359375 52.05859375 C54.27423946 50.42304261 56.16681496 49.9516337 59.0546875 49.5703125 C60.9423688 55.46931655 60.35415797 60.91062511 58.0546875 66.5703125 C56.03125 69.30859375 56.03125 69.30859375 53.6796875 71.8828125 C52.90882813 72.74519531 52.13796875 73.60757813 51.34375 74.49609375 C49.11459316 76.51602939 47.98768662 77.21540621 45.0546875 77.5703125 C45.0546875 78.2303125 45.0546875 78.8903125 45.0546875 79.5703125 C36.94022646 83.6109829 28.80008281 86.24747197 20.0546875 88.5703125 C19.01183594 88.87195313 17.96898437 89.17359375 16.89453125 89.484375 C15.93675781 89.76023437 14.97898438 90.03609375 13.9921875 90.3203125 C13.15558594 90.56265625 12.31898437 90.805 11.45703125 91.0546875 C8.92248809 91.59868701 6.63913371 91.66244962 4.0546875 91.5703125 C4.71048611 94.28947746 5.38532653 97.0018903 6.08203125 99.7109375 C6.80292551 102.57135328 7.47463654 105.42769293 8.12109375 108.3046875 C8.51449569 109.93516873 8.90902344 111.56537874 9.3046875 113.1953125 C9.47250732 113.98921387 9.64032715 114.78311523 9.81323242 115.60107422 C10.37117194 117.8132219 10.87773004 119.61370709 12.0546875 121.5703125 C15.5882586 123.21456947 15.5882586 123.21456947 19.0546875 123.5703125 C19.0546875 123.9003125 19.0546875 124.2303125 19.0546875 124.5703125 C11.3046875 124.6953125 11.3046875 124.6953125 9.0546875 123.5703125 C8.33639858 121.17098607 7.73055466 118.82128412 7.1796875 116.3828125 C6.17222988 112.07464391 5.16196381 107.79332623 3.8359375 103.5703125 C3.454375 102.3534375 3.0728125 101.1365625 2.6796875 99.8828125 C2.32132813 98.78582031 1.96296875 97.68882812 1.59375 96.55859375 C0.96934037 93.09719255 1.39021255 91.62361687 3.0546875 88.5703125 C5.0546875 86.2578125 5.0546875 86.2578125 7.0546875 84.5703125 C7.7146875 84.5703125 8.3746875 84.5703125 9.0546875 84.5703125 C9.5496875 83.0853125 9.5496875 83.0853125 10.0546875 81.5703125 C10.83972656 81.44914062 11.62476563 81.32796875 12.43359375 81.203125 C18.10622129 80.29828871 23.5675045 79.30310713 29.0546875 77.5703125 C30.55515625 77.11978516 30.55515625 77.11978516 32.0859375 76.66015625 C38.16617866 74.82632205 44.14383934 72.89243142 50.0546875 70.5703125 C51.50875 70.168125 51.50875 70.168125 52.9921875 69.7578125 C55.3117713 68.72893867 55.3117713 68.72893867 55.8671875 66.0703125 C56.10855926 61.56470638 56.13491568 57.08091889 56.0546875 52.5703125 C55.63960938 52.94542969 55.22453125 53.32054687 54.796875 53.70703125 C44.79039769 62.01785027 30.54021827 65.98940438 17.6171875 65.8203125 C16.87364014 65.81427002 16.13009277 65.80822754 15.36401367 65.80200195 C2.77762544 65.57476111 -7.29735105 61.4082157 -16.1328125 52.3203125 C-16.7309375 51.4128125 -17.3290625 50.5053125 -17.9453125 49.5703125 C-18.39003906 48.90773437 -18.83476563 48.24515625 -19.29296875 47.5625 C-25.03225813 37.87445163 -23.82213669 27.42434816 -21.5703125 16.7578125 C-18.30799797 5.89487744 -12.04343694 -2.3686538 0 0 Z " fill="#4D1A15" transform="translate(97.9453125,99.4296875)"/>
<path d="M0 0 C0.33 0 0.66 0 1 0 C1 41.91 1 83.82 1 127 C-1 126 -3 125 -5 124 C-5 123.34 -5 122.68 -5 122 C-5.825 121.773125 -6.65 121.54625 -7.5 121.3125 C-11.10973924 119.95884778 -13.97507771 118.24339016 -17.16796875 116.12109375 C-19.10995074 114.83810114 -19.10995074 114.83810114 -22 114 C-22.33 113.34 -22.66 112.68 -23 112 C-24.99291777 111.21655744 -27.02051823 110.51983635 -29.0625 109.875 C-30.16722656 109.52179688 -31.27195313 109.16859375 -32.41015625 108.8046875 C-33.26480469 108.53914063 -34.11945313 108.27359375 -35 108 C-33.2265625 104.109375 -33.2265625 104.109375 -31.1875 103.125 C-28.5352186 101.76096956 -27.10335708 99.87094667 -25.2734375 97.55859375 C-24 96 -24 96 -21.6875 93.75 C-13.73081642 85.60827726 -5.28147622 75.75532437 -4.4375 63.953125 C-4.36273438 63.02628906 -4.28796875 62.09945312 -4.2109375 61.14453125 C-4.06917983 59.19930096 -3.92857274 57.25398651 -3.7890625 55.30859375 C-3.71429688 54.38691406 -3.63953125 53.46523437 -3.5625 52.515625 C-3.47162109 51.25153809 -3.47162109 51.25153809 -3.37890625 49.96191406 C-3.19134766 48.9907666 -3.19134766 48.9907666 -3 48 C-2.34 47.67 -1.68 47.34 -1 47 C-0.67 31.49 -0.34 15.98 0 0 Z " fill="#F2F1F1" transform="translate(204,91)"/>
<path d="M0 0 C2.64 0 5.28 0 8 0 C8.09338151 16.89804355 8.16394871 33.79600674 8.20724869 50.69424915 C8.22788672 58.54015025 8.25603078 66.38589116 8.30175781 74.23168945 C8.34158788 81.06894415 8.36742379 87.90608286 8.37635398 94.74345034 C8.38157532 98.36489287 8.39387242 101.98600355 8.42292023 105.60733986 C8.45506153 109.64698727 8.4559619 113.6860553 8.45410156 117.72583008 C8.46848267 118.93064026 8.48286377 120.13545044 8.49768066 121.37677002 C8.49218201 122.47473404 8.48668335 123.57269806 8.48101807 124.70393372 C8.48470524 125.65983304 8.48839241 126.61573236 8.49219131 127.60059834 C8 130 8 130 6.15743637 131.83100414 C4 133 4 133 1 133 C-0.27857964 130.44284071 -0.1229924 128.65005057 -0.12025452 125.78622437 C-0.12162918 124.68122086 -0.12300385 123.57621735 -0.12442017 122.43772888 C-0.12082489 121.21997269 -0.11722961 120.00221649 -0.11352539 118.74755859 C-0.11367142 117.4695488 -0.11381744 116.191539 -0.1139679 114.87480164 C-0.11425549 111.36468746 -0.10836491 107.85460727 -0.10139394 104.34450102 C-0.09515406 100.67828766 -0.0945561 97.01207357 -0.09336853 93.34585571 C-0.09025709 86.40084359 -0.08204621 79.45584717 -0.07201904 72.51084197 C-0.06085211 64.60526498 -0.05534599 56.69968725 -0.05032361 48.79410434 C-0.03986345 32.5293937 -0.02226762 16.26469885 0 0 Z " fill="#070201" transform="translate(242,140)"/>
<path d="M0 0 C0.51175781 0.66128906 1.02351563 1.32257813 1.55078125 2.00390625 C2.11667969 2.73222656 2.68257812 3.46054688 3.265625 4.2109375 C5.74536821 7.86689143 7.87151943 11.62665759 9.86328125 15.56640625 C10.46140625 16.68015625 11.05953125 17.79390625 11.67578125 18.94140625 C12.86328125 21.56640625 12.86328125 21.56640625 12.86328125 24.56640625 C13.52328125 24.56640625 14.18328125 24.56640625 14.86328125 24.56640625 C15.86897689 30.42357766 16.04658281 36.12981831 16.05078125 42.06640625 C16.06302734 42.97777344 16.07527344 43.88914063 16.08789062 44.828125 C16.09944848 50.16785387 15.59620137 54.51526502 13.86328125 59.56640625 C13.33734375 61.39171875 13.33734375 61.39171875 12.80078125 63.25390625 C10.4497083 69.43903663 5.93736952 74.44140476 1.86328125 79.56640625 C1.36054688 80.23671875 0.8578125 80.90703125 0.33984375 81.59765625 C-2.1320519 84.80954614 -4.21884717 86.44701437 -8.13671875 87.56640625 C-5.49227431 82.90714699 -5.49227431 82.90714699 -3.63671875 81.12890625 C-1.89283851 79.47508665 -1.89283851 79.47508665 -0.63671875 76.44140625 C0.86328125 73.56640625 0.86328125 73.56640625 3.86328125 72.56640625 C5.01464487 64.37993894 4.97743108 56.25131271 4.92578125 48.00390625 C4.92075491 46.59961098 4.91619401 45.19531395 4.91210938 43.79101562 C4.90039718 40.38276722 4.88399497 36.97460985 4.86328125 33.56640625 C4.20328125 33.56640625 3.54328125 33.56640625 2.86328125 33.56640625 C2.51265625 32.30828125 2.16203125 31.05015625 1.80078125 29.75390625 C-0.18520858 23.74842506 -3.55465585 18.7359743 -7.13671875 13.56640625 C-7.55953125 12.79941406 -7.98234375 12.03242187 -8.41796875 11.2421875 C-10.11188976 9.25144501 -10.11188976 9.25144501 -13.234375 9.19140625 C-17.7986796 9.6300181 -22.12012632 10.50402804 -26.57421875 11.56640625 C-27.40115234 11.7571875 -28.22808594 11.94796875 -29.08007812 12.14453125 C-31.10054241 12.61169062 -33.11886422 13.08809999 -35.13671875 13.56640625 C-35.46671875 12.57640625 -35.79671875 11.58640625 -36.13671875 10.56640625 C-30.52597395 2.48379486 -23.73878195 0.87319569 -14.57421875 -0.83984375 C-3.68159991 -2.47010451 -3.68159991 -2.47010451 0 0 Z " fill="#191514" transform="translate(185.13671875,101.43359375)"/>
<path d="M0 0 C0.33 0 0.66 0 1 0 C1 47.19 1 94.38 1 143 C-3.25816704 141.93545824 -5.76477609 140.14075991 -9.125 137.5 C-12.88966644 134.48590933 -12.88966644 134.48590933 -17 132 C-17 131.34 -17 130.68 -17 130 C-17.763125 129.79375 -18.52625 129.5875 -19.3125 129.375 C-22.42287454 128.21519932 -24.89820616 126.96030075 -27.75 125.3125 C-33.61373743 121.99891985 -39.7351753 119.68745901 -46.06933594 117.44848633 C-48.07780578 116.71346543 -50.04395773 115.8649309 -52 115 C-52.33 114.01 -52.66 113.02 -53 112 C-48.545 111.01 -48.545 111.01 -44 110 C-44 109.34 -44 108.68 -44 108 C-41.525 107.505 -41.525 107.505 -39 107 C-39 106.34 -39 105.68 -39 105 C-37.5459375 104.5978125 -37.5459375 104.5978125 -36.0625 104.1875 C-34.5465625 103.5996875 -34.5465625 103.5996875 -33 103 C-32.505 101.515 -32.505 101.515 -32 100 C-29.9375 99.3125 -29.9375 99.3125 -28 99 C-29.466708 102.86677565 -31.47201672 104.00985559 -35 106 C-35.33 106.66 -35.66 107.32 -36 108 C-35.34 108.103125 -34.68 108.20625 -34 108.3125 C-30.16158991 109.19213564 -26.66903309 110.56969896 -23 112 C-23 112.66 -23 113.32 -23 114 C-22.30519531 114.09410156 -21.61039063 114.18820313 -20.89453125 114.28515625 C-17.40627344 115.14662883 -14.78258977 116.61974887 -11.6875 118.4375 C-10.61886719 119.05496094 -9.55023438 119.67242187 -8.44921875 120.30859375 C-7.64097656 120.86675781 -6.83273438 121.42492187 -6 122 C-6 122.66 -6 123.32 -6 124 C-5.071875 124.4640625 -5.071875 124.4640625 -4.125 124.9375 C-2.75 125.625 -1.375 126.3125 0 127 C0 85.09 0 43.18 0 0 Z " fill="#413F3E" transform="translate(205,91)"/>
<path d="M0 0 C0.17423988 4.00139013 0.30060848 8.00128646 0.38452148 12.00561523 C0.41952778 13.3647308 0.46715338 14.72358647 0.52807617 16.08178711 C1.08262049 28.77106591 1.08262049 28.77106591 -2.52734375 33.43359375 C-7 36 -7 36 -23 36 C-23 78.24 -23 120.48 -23 164 C-23.33 164 -23.66 164 -24 164 C-24 121.76 -24 79.52 -24 36 C-26.64 36 -29.28 36 -32 36 C-31.67 79.89 -31.34 123.78 -31 169 C-30.34 169.33 -29.68 169.66 -29 170 C-29.9753418 171.46411133 -29.9753418 171.46411133 -32 173 C-34.86959988 173.35933327 -37.51821338 173.53952315 -40.39453125 173.57421875 C-41.63199348 173.59631157 -41.63199348 173.59631157 -42.89445496 173.61885071 C-44.64023581 173.64279799 -46.38615131 173.6582217 -48.13208008 173.66577148 C-50.79418698 173.68735155 -53.45049302 173.76749853 -56.11132812 173.84960938 C-68.48382997 174.04651883 -68.48382997 174.04651883 -72.39599609 171.34619141 C-73.93298649 169.2912338 -74.97347339 167.34488718 -76 165 C-78.69605817 161.41205113 -81.37151663 158.72531241 -84.9375 156 C-87.74513501 153.81719737 -90.25806366 151.73607126 -92.75 149.1875 C-95.28305928 146.72480348 -97.78444349 145.4208273 -101 144 C-101 143.34 -101 142.68 -101 142 C-101.86625 141.731875 -102.7325 141.46375 -103.625 141.1875 C-106.91791964 140.02888013 -109.91127875 138.61790161 -113 137 C-113 136.34 -113 135.68 -113 135 C-113.969375 134.731875 -114.93875 134.46375 -115.9375 134.1875 C-120.33926896 132.93371745 -124.66776506 131.4735493 -129 130 C-129 129.34 -129 128.68 -129 128 C-130.299375 127.773125 -131.59875 127.54625 -132.9375 127.3125 C-140.76909046 125.7642635 -148.36980154 123.31915545 -156 121 C-156 120.67 -156 120.34 -156 120 C-150.68651649 119.65346847 -146.56577342 120.56613217 -141.51171875 122.19921875 C-138.04396947 123.30479978 -134.5376996 124.14833158 -131 125 C-131 125.66 -131 126.32 -131 127 C-130.00355469 127.09023437 -129.00710937 127.18046875 -127.98046875 127.2734375 C-123.63838859 127.8994998 -120.1651687 129.59740386 -116.3125 131.625 C-115.26920532 132.16241821 -115.26920532 132.16241821 -114.20483398 132.71069336 C-102.29092188 138.90494292 -91.47065931 145.39067804 -82 155 C-80.90228704 156.08849693 -79.80325796 157.17566774 -78.703125 158.26171875 C-77.55205219 159.40361444 -76.40101094 160.54554195 -75.25 161.6875 C-74.66089844 162.26822266 -74.07179688 162.84894531 -73.46484375 163.44726562 C-69.11290179 167.77419643 -69.11290179 167.77419643 -68 170 C-56.45 170.33 -44.9 170.66 -33 171 C-33 126.12 -33 81.24 -33 35 C-24.75 35 -16.5 35 -8 35 C-7.99742187 32.97617188 -7.99484375 30.95234375 -7.9921875 28.8671875 C-7.96435733 26.89124508 -7.93631246 24.91529955 -7.90234375 22.93945312 C-7.88425818 21.57399247 -7.87660175 20.20834992 -7.87988281 18.84277344 C-7.89859312 6.02621079 -7.89859312 6.02621079 -4.0078125 2.0703125 C-1 0 -1 0 0 0 Z " fill="#6B3835" transform="translate(274,104)"/>
<path d="M0 0 C0 0.66 0 1.32 0 2 C0.58265625 2.03738281 1.1653125 2.07476562 1.765625 2.11328125 C8.7343058 2.67209056 15.26455965 4.15990547 22 6 C22.5625 7.9375 22.5625 7.9375 23 10 C22.67 10.33 22.34 10.66 22 11 C21.72294212 13.26110806 21.72294212 13.26110806 21.6875 15.875 C21.65011719 16.75929688 21.61273438 17.64359375 21.57421875 18.5546875 C21.7832323 21.1163997 21.7832323 21.1163997 23.75390625 22.80078125 C29.69723606 25.97400256 36.8832447 23.77941972 43 22 C41.36852335 26.89442995 37.1999806 29.22281413 33 32 C27.88254974 34.10180993 22.49323907 34.86410502 17 34 C14.12970131 32.20606332 12.50868362 31.01736724 11 28 C10.73800783 23.37147171 11.16204197 20.22076527 13 16 C12.31035156 15.87882812 11.62070313 15.75765625 10.91015625 15.6328125 C1.11633824 13.88631546 -8.42022089 11.68591938 -18 9 C-17.23429869 5.09492331 -15.85634152 2.89167957 -13.03125 0.12890625 C-8.9738911 -2.12604899 -4.37441768 -0.85620275 0 0 Z " fill="#191616" transform="translate(100,100)"/>
<path d="M0 0 C0.66 1.32 1.32 2.64 2 4 C1.34 4 0.68 4 0 4 C-3.78327133 23.65176685 -3.78327133 23.65176685 2 42 C6.39485744 47.80667693 10.96839395 50.32580808 18 52 C18 52.66 18 53.32 18 54 C22.03426587 54.10051836 26.06802545 54.17222514 30.10327148 54.21972656 C31.4696119 54.23957267 32.83587059 54.26665914 34.2019043 54.30175781 C47.40836416 54.63204074 58.28765939 52.87956005 68.78125 44.48828125 C71.21955196 42.85273011 73.11212746 42.3813212 76 42 C77.88139479 47.87935872 77.31090273 53.35112665 75 59 C74.34 59.99 73.68 60.98 73 62 C71.515 61.505 71.515 61.505 70 61 C70.66 61 71.32 61 72 61 C73.12862175 55.63904667 73.09688221 50.44693314 73 45 C72.58492188 45.37511719 72.16984375 45.75023437 71.7421875 46.13671875 C61.73571019 54.44753777 47.48553077 58.41909188 34.5625 58.25 C33.81895264 58.24395752 33.07540527 58.23791504 32.30932617 58.23168945 C19.72293794 58.00444861 9.64796145 53.8379032 0.8125 44.75 C0.214375 43.8425 -0.38375 42.935 -1 42 C-1.44472656 41.33742187 -1.88945313 40.67484375 -2.34765625 39.9921875 C-7.81240502 30.7675698 -7.10791719 20.78425281 -4.65600586 10.69995117 C-2.48962797 2.48962797 -2.48962797 2.48962797 0 0 Z " fill="#84443E" transform="translate(81,107)"/>
<path d="M0 0 C1.85772162 0.08984301 3.71247985 0.24611861 5.5625 0.4375 C7.08037109 0.59025391 7.08037109 0.59025391 8.62890625 0.74609375 C9.80259766 0.87177734 9.80259766 0.87177734 11 1 C11 1.66 11 2.32 11 3 C11.58265625 3.03738281 12.1653125 3.07476562 12.765625 3.11328125 C19.7343058 3.67209056 26.26455965 5.15990547 33 7 C33.495 8.98 33.495 8.98 34 11 C33.505 10.01 33.505 10.01 33 9 C32.59910156 9.44472656 32.19820312 9.88945313 31.78515625 10.34765625 C27.29324407 14.81919695 27.29324407 14.81919695 23.98828125 15.28125 C21.58853826 15.03284777 19.34655282 14.56652989 17 14 C15.85660156 13.74992187 14.71320313 13.49984375 13.53515625 13.2421875 C10.34732029 12.52916447 7.17212006 11.77954728 4 11 C4 10.34 4 9.68 4 9 C0.37 8.67 -3.26 8.34 -7 8 C-1.125 1.125 -1.125 1.125 0 0 Z " fill="#555354" transform="translate(89,99)"/>
<path d="M0 0 C0.33 0 0.66 0 1 0 C1 47.19 1 94.38 1 143 C-3.25816704 141.93545824 -5.76477609 140.14075991 -9.125 137.5 C-12.88966644 134.48590933 -12.88966644 134.48590933 -17 132 C-17 131.34 -17 130.68 -17 130 C-17.763125 129.79375 -18.52625 129.5875 -19.3125 129.375 C-22.42287454 128.21519932 -24.89820616 126.96030075 -27.75 125.3125 C-33.61373743 121.99891985 -39.7351753 119.68745901 -46.06933594 117.44848633 C-48.07780578 116.71346543 -50.04395773 115.8649309 -52 115 C-52.33 114.01 -52.66 113.02 -53 112 C-48.545 111.01 -48.545 111.01 -44 110 C-44 109.34 -44 108.68 -44 108 C-40.535 107.01 -40.535 107.01 -37 106 C-37.495 106.99 -37.495 106.99 -38 108 C-38.66 108 -39.32 108 -40 108 C-40 108.66 -40 109.32 -40 110 C-42.97 110.99 -42.97 110.99 -46 112 C-46 112.66 -46 113.32 -46 114 C-43.69 114.99 -41.38 115.98 -39 117 C-39 117.66 -39 118.32 -39 119 C-37.72125 119.226875 -36.4425 119.45375 -35.125 119.6875 C-29.61331172 120.88797901 -24.92174841 123.30793719 -20 126 C-20 126.66 -20 127.32 -20 128 C-19.278125 128.0825 -18.55625 128.165 -17.8125 128.25 C-14.38107299 129.1650472 -12.66118134 130.67146632 -10 133 C-6.32903406 136.07927669 -6.32903406 136.07927669 -2 138 C-1.0681705 130.35924762 -0.83281294 122.80704701 -0.79467773 115.11474609 C-0.78477814 113.8648288 -0.77487854 112.6149115 -0.76467896 111.32711792 C-0.73867648 107.9311295 -0.7167394 104.53516226 -0.69667697 101.13913679 C-0.6746577 97.57838001 -0.64734777 94.0176637 -0.62062073 90.4569397 C-0.5709076 83.7282612 -0.5258904 76.99955997 -0.48259836 70.27083743 C-0.43304205 62.60446104 -0.37819274 54.93812532 -0.32291877 47.27178836 C-0.20942738 31.51456323 -0.10251816 15.75730058 0 0 Z " fill="#542724" transform="translate(205,91)"/>
<path d="M0 0 C0.66 0.33 1.32 0.66 2 1 C2.625 4.0625 2.625 4.0625 3 7 C3.66 7 4.32 7 5 7 C5.33 9.31 5.66 11.62 6 14 C13.92 14 21.84 14 30 14 C30 25.22 30 36.44 30 48 C29.01 48 28.02 48 27 48 C27.33 47.67 27.66 47.34 28 47 C28.08767112 44.92737924 28.10695873 42.85179706 28.09765625 40.77734375 C28.09282227 38.88725586 28.09282227 38.88725586 28.08789062 36.95898438 C28.07953403 35.61848891 28.07106907 34.27799412 28.0625 32.9375 C28.0574866 31.59310058 28.05292342 30.2486994 28.04882812 28.90429688 C28.03699488 25.60282059 28.02050971 22.30143197 28 19 C27.26523437 19.82886719 26.53046875 20.65773438 25.7734375 21.51171875 C21.02035265 25.47262279 15.44131225 24.28862921 9.625 23.8125 C8.50738281 23.74224609 7.38976562 23.67199219 6.23828125 23.59960938 C3.48968053 23.42341702 0.74514341 23.22287996 -2 23 C-0.203125 19.171875 -0.203125 19.171875 1.625 17.625 C3.22743783 16.02153773 3.22743783 16.02153773 3.375 13.4375 C2.86395103 8.75288448 1.48092465 4.46040401 0 0 Z " fill="#7C7170" transform="translate(245,86)"/>
<path d="M0 0 C5.31348351 -0.34653153 9.43422658 0.56613217 14.48828125 2.19921875 C17.95603053 3.30479978 21.4623004 4.14833158 25 5 C25 5.66 25 6.32 25 7 C26.49466797 7.13535156 26.49466797 7.13535156 28.01953125 7.2734375 C32.36161141 7.8994998 35.8348313 9.59740386 39.6875 11.625 C40.38302979 11.98327881 41.07855957 12.34155762 41.79516602 12.71069336 C53.70907812 18.90494292 64.52934069 25.39067804 74 35 C75.09771296 36.08849693 76.19674204 37.17566774 77.296875 38.26171875 C78.44794781 39.40361444 79.59898906 40.54554195 80.75 41.6875 C81.33910156 42.26822266 81.92820312 42.84894531 82.53515625 43.44726562 C86.88709821 47.77419643 86.88709821 47.77419643 88 50 C99.88 50.33 111.76 50.66 124 51 C124.33 49.68 124.66 48.36 125 47 C125 47.66 125 48.32 125 49 C125.66 49.33 126.32 49.66 127 50 C126.0246582 51.46411133 126.0246582 51.46411133 124 53 C121.13040012 53.35933327 118.48178662 53.53952315 115.60546875 53.57421875 C114.36800652 53.59631157 114.36800652 53.59631157 113.10554504 53.61885071 C111.35976419 53.64279799 109.61384869 53.6582217 107.86791992 53.66577148 C105.20581302 53.68735155 102.54950698 53.76749853 99.88867188 53.84960938 C87.51617003 54.04651883 87.51617003 54.04651883 83.60400391 51.34619141 C82.06701351 49.2912338 81.02652661 47.34488718 80 45 C77.30394183 41.41205113 74.62848337 38.72531241 71.0625 36 C68.25486499 33.81719737 65.74193634 31.73607126 63.25 29.1875 C60.71694072 26.72480348 58.21555651 25.4208273 55 24 C55 23.34 55 22.68 55 22 C54.13375 21.731875 53.2675 21.46375 52.375 21.1875 C49.08208036 20.02888013 46.08872125 18.61790161 43 17 C43 16.34 43 15.68 43 15 C42.030625 14.731875 41.06125 14.46375 40.0625 14.1875 C35.66073104 12.93371745 31.33223494 11.4735493 27 10 C27 9.34 27 8.68 27 8 C25.700625 7.773125 24.40125 7.54625 23.0625 7.3125 C15.23090954 5.7642635 7.63019846 3.31915545 0 1 C0 0.67 0 0.34 0 0 Z " fill="#783A34" transform="translate(118,224)"/>
<path d="M0 0 C3 1 3 1 4.16796875 3.29296875 C7.92092728 13.94791997 7.92092728 13.94791997 7 18 C5.02 20.31 3.04 22.62 1 25 C8.92 25 16.84 25 25 25 C25 25.33 25 25.66 25 26 C16.42 26 7.84 26 -1 26 C-1.99 23.36 -2.98 20.72 -4 18 C-4.556875 16.741875 -5.11375 15.48375 -5.6875 14.1875 C-7 11 -7 11 -7 8 C-16.24 8 -25.48 8 -35 8 C-35 7.67 -35 7.34 -35 7 C-34.14768799 6.9906543 -33.29537598 6.98130859 -32.41723633 6.97167969 C-29.23916483 6.92753079 -26.06204216 6.86585733 -22.88452148 6.79248047 C-21.51225093 6.76434625 -20.13982059 6.74309414 -18.76733398 6.72900391 C-16.78861506 6.70747269 -14.8102523 6.6587072 -12.83203125 6.609375 C-11.64327393 6.58842773 -10.4545166 6.56748047 -9.22973633 6.54589844 C-5.41561938 5.90122647 -3.74018147 4.67784054 -1 2 C-0.67 1.34 -0.34 0.68 0 0 Z " fill="#150907" transform="translate(242,84)"/>
<path d="M0 0 C1.34888732 0.00015905 2.69778075 0.00584927 4.04663086 0.01586914 C5.10991859 0.01799156 5.10991859 0.01799156 6.19468689 0.02015686 C8.46699173 0.02577096 10.73919936 0.03832576 13.01147461 0.05102539 C14.54858257 0.05603858 16.08569206 0.0606018 17.62280273 0.06469727 C21.39823103 0.07574497 25.17358632 0.09301898 28.94897461 0.11352539 C28.61897461 0.77352539 28.28897461 1.43352539 27.94897461 2.11352539 C27.28897461 1.78352539 26.62897461 1.45352539 25.94897461 1.11352539 C25.61897461 2.10352539 25.28897461 3.09352539 24.94897461 4.11352539 C22.18436686 6.93189206 20.57353956 8.02813834 16.62744141 8.56762695 C15.39678955 8.54667969 14.1661377 8.52573242 12.89819336 8.50415039 C12.23938675 8.4984906 11.58058014 8.49283081 10.90180969 8.48699951 C8.81260245 8.46473779 6.72515688 8.41456869 4.63647461 8.36352539 C3.21397347 8.34344683 1.79144524 8.32519843 0.36889648 8.30883789 C-3.10497619 8.26490898 -6.57782864 8.19595635 -10.05102539 8.11352539 C-9.07236201 6.96726217 -8.09307952 5.82152751 -7.11352539 4.67602539 C-6.56825195 4.03793945 -6.02297852 3.39985352 -5.46118164 2.74243164 C-3.18978778 0.11868859 -3.18978778 0.11868859 0 0 Z " fill="#5B5858" transform="translate(216.051025390625,82.886474609375)"/>
<path d="M0 0 C0.17423988 4.00139013 0.30060848 8.00128646 0.38452148 12.00561523 C0.41952778 13.3647308 0.46715338 14.72358647 0.52807617 16.08178711 C1.02246332 27.3945284 1.02246332 27.3945284 -1.58935547 31.49560547 C-3.30786894 33.21411894 -4.97799775 34.65796887 -7 36 C-8.75407757 30.7377673 -8.06656131 25.18551188 -7.9375 19.6875 C-7.93459961 17.85155273 -7.93459961 17.85155273 -7.93164062 15.97851562 C-7.67354907 5.87999726 -7.67354907 5.87999726 -4.00390625 2.14453125 C-1 0 -1 0 0 0 Z " fill="#9D2E26" transform="translate(274,104)"/>
<path d="M0 0 C0.495 0.99 0.495 0.99 1 2 C-5.73664104 6.04198462 -12.4081467 8.18594228 -20 10.0625 C-20.68578125 10.23587891 -21.3715625 10.40925781 -22.078125 10.58789062 C-26.03284578 11.57279723 -29.97065514 12.38930242 -34 13 C-33.04270084 11.87411986 -32.08412105 10.7493285 -31.125 9.625 C-30.59132812 8.99851562 -30.05765625 8.37203125 -29.5078125 7.7265625 C-25.94087195 3.64213834 -22.53263686 2.98904956 -17.375 1.875 C-16.59253906 1.69324219 -15.81007812 1.51148437 -15.00390625 1.32421875 C-9.89044585 0.19637425 -5.23407257 -0.17965924 0 0 Z " fill="#616061" transform="translate(183,100)"/>
<path d="M0 0 C0.66 1.32 1.32 2.64 2 4 C1.34 4 0.68 4 0 4 C-3.78327133 23.65176685 -3.78327133 23.65176685 2 42 C6.39485744 47.80667693 10.96839395 50.32580808 18 52 C17.67 52.99 17.34 53.98 17 55 C9.54654512 53.13663628 3.21749852 48.39896327 -1 42 C-1.44472656 41.33742187 -1.88945313 40.67484375 -2.34765625 39.9921875 C-7.81240502 30.7675698 -7.10791719 20.78425281 -4.65600586 10.69995117 C-2.48962797 2.48962797 -2.48962797 2.48962797 0 0 Z " fill="#7B3933" transform="translate(81,107)"/>
<path d="M0 0 C0.66 0.33 1.32 0.66 2 1 C1.0409375 1.680625 1.0409375 1.680625 0.0625 2.375 C-2.09702406 3.83921726 -2.09702406 3.83921726 -3 6 C-3.78375 5.979375 -4.5675 5.95875 -5.375 5.9375 C-7.98114961 5.81315937 -7.98114961 5.81315937 -10 7 C-12.65756465 7.43225449 -15.32332885 7.69779519 -18 8 C-18.33 9.32 -18.66 10.64 -19 12 C-21.18386418 12.67848208 -23.37230084 13.3422551 -25.5625 14 C-26.78066406 14.37125 -27.99882813 14.7425 -29.25390625 15.125 C-32.97923349 15.99514943 -36.19065949 16.15688404 -40 16 C-39.34 14.68 -38.68 13.36 -38 12 C-37.34 12 -36.68 12 -36 12 C-35.67 11.01 -35.34 10.02 -35 9 C-34.21496094 8.87882813 -33.42992188 8.75765625 -32.62109375 8.6328125 C-26.94846621 7.72797621 -21.487183 6.73279463 -16 5 C-13.7501064 4.31215189 -11.50009627 3.62468486 -9.25 2.9375 C-6.15631278 1.98421266 -3.07110981 1.02370327 0 0 Z " fill="#5F5E5D" transform="translate(143,172)"/>
<path d="M0 0 C0.48765522 4.09630385 0.25323139 5.64547606 -2.1875 9.0625 C-3.11002561 10.05578752 -4.04792993 11.0349942 -5 12 C-5.886875 12.94875 -6.77375 13.8975 -7.6875 14.875 C-10 17 -10 17 -12 17 C-12.33 17.99 -12.66 18.98 -13 20 C-14.65 20 -16.3 20 -18 20 C-18 20.66 -18 21.32 -18 22 C-21.30783265 23.10261088 -23.95559269 23.23740779 -27.4375 23.3125 C-29.13712891 23.36857422 -29.13712891 23.36857422 -30.87109375 23.42578125 C-34 23 -34 23 -36.33203125 21.40234375 C-38.45732243 18.34132718 -38.80780456 15.93496204 -39.25 12.25 C-39.39953125 11.07953125 -39.5490625 9.9090625 -39.703125 8.703125 C-39.80109375 7.81109375 -39.8990625 6.9190625 -40 6 C-39.01 5.67 -38.02 5.34 -37 5 C-36.67 4.34 -36.34 3.68 -36 3 C-36.165 3.680625 -36.33 4.36125 -36.5 5.0625 C-37.66876599 11.8151391 -37.66876599 11.8151391 -35.0625 17.9375 C-30.88116586 20.75350054 -27.89959072 20.74645304 -23 20 C-19.90012224 19.2163509 -16.95048606 18.22983931 -14 17 C-13.27425781 16.69835937 -12.54851562 16.39671875 -11.80078125 16.0859375 C-9.65949848 15.06032314 -9.65949848 15.06032314 -9 12 C-8.34 11.34 -7.68 10.68 -7 10 C-7.66 9.67 -8.32 9.34 -9 9 C-8.01 8.67 -7.02 8.34 -6 8 C-5.30341637 6.34561387 -4.63903117 4.67745682 -4 3 C-1.4137931 0 -1.4137931 0 0 0 Z " fill="#C04338" transform="translate(149,113)"/>
<path d="M0 0 C0.78117187 0.49113281 0.78117187 0.49113281 1.578125 0.9921875 C4.74712009 2.31089836 7.3298619 2.19340276 10.75 2.125 C11.92046875 2.10695313 13.0909375 2.08890625 14.296875 2.0703125 C15.18890625 2.04710938 16.0809375 2.02390625 17 2 C16.67 2.66 16.34 3.32 16 4 C15.34 4 14.68 4 14 4 C14 4.66 14 5.32 14 6 C7.76335625 10.53574091 2.56198897 10.44701413 -5 10 C-5 4.69520066 -3.4637943 3.81017373 0 0 Z " fill="#4D4B49" transform="translate(122,122)"/>
<path d="M0 0 C5.39359575 4.58455639 7.44523446 10.20412219 8 17 C8.66 17 9.32 17 10 17 C11.31058202 22.7495658 11.18409037 28.37861561 11.1875 34.25 C11.19974609 35.34441406 11.21199219 36.43882812 11.22460938 37.56640625 C11.23623583 44.03846399 10.66979228 49.74322892 9 56 C8.34 56 7.68 56 7 56 C7.16153564 55.15074951 7.32307129 54.30149902 7.48950195 53.42651367 C8.38474701 47.41753981 8.18453735 41.37705055 8.1875 35.3125 C8.19965261 33.96809698 8.21202045 32.62369588 8.22460938 31.27929688 C8.22654297 30.00763672 8.22847656 28.73597656 8.23046875 27.42578125 C8.23457764 26.26473877 8.23868652 25.10369629 8.24291992 23.9074707 C8.21969919 20.80575976 8.21969919 20.80575976 6 18 C5.71125 16.9275 5.4225 15.855 5.125 14.75 C4.22617639 11.75392129 3.45390284 9.89767543 1.875 7.3125 C0 4 0 4 0 0 Z " fill="#B44036" transform="translate(180,118)"/>
<path d="M0 0 C0.79024929 10.02738548 0.79024929 10.02738548 -2.4375 14 C-3.283125 14.66 -4.12875 15.32 -5 16 C-5.33 16.99 -5.66 17.98 -6 19 C-6.66 19 -7.32 19 -8 19 C-9.53597454 15.92805092 -9.2265038 13.39755707 -9 10 C-7.65497894 6.3896803 -4.65634683 0 0 0 Z " fill="#180605" transform="translate(120,111)"/>
<path d="M0 0 C5.31348351 -0.34653153 9.43422658 0.56613217 14.48828125 2.19921875 C17.95603053 3.30479978 21.4623004 4.14833158 25 5 C25 5.66 25 6.32 25 7 C25.99128906 7.09152344 26.98257813 7.18304688 28.00390625 7.27734375 C32.3856288 7.90330411 36.00030566 9.61128985 39.9375 11.5625 C40.62134766 11.89185547 41.30519531 12.22121094 42.00976562 12.56054688 C43.67731871 13.36517039 45.33926839 14.1813897 47 15 C44.19315301 16.12003991 43.04742454 16.01585114 40.125 15.0390625 C39.09375 14.57242188 38.0625 14.10578125 37 13.625 C32.12502551 11.43883514 32.12502551 11.43883514 27 10 C27 9.34 27 8.68 27 8 C25.700625 7.773125 24.40125 7.54625 23.0625 7.3125 C15.23090954 5.7642635 7.63019846 3.31915545 0 1 C0 0.67 0 0.34 0 0 Z " fill="#7C3D36" transform="translate(118,224)"/>
<path d="M0 0 C0.495 1.98 0.495 1.98 1 4 C0.34 4 -0.32 4 -1 4 C-1.0825 4.61875 -1.165 5.2375 -1.25 5.875 C-2 8 -2 8 -4.0625 9.25 C-4.701875 9.4975 -5.34125 9.745 -6 10 C-6 10.66 -6 11.32 -6 12 C-6.7425 12.2475 -7.485 12.495 -8.25 12.75 C-11.07315072 13.83906842 -11.07315072 13.83906842 -13 16 C-16.32386383 19.32386383 -19.64530993 20.01539021 -24.1875 20.5 C-28.01424714 20.6081437 -28.01424714 20.6081437 -30 23 C-32.68839385 23.26991906 -35.29141936 23.08737357 -38 23 C-38 22.67 -38 22.34 -38 22 C-36.26363281 21.51080078 -36.26363281 21.51080078 -34.4921875 21.01171875 C-32.95303666 20.57062064 -31.41397905 20.12919711 -29.875 19.6875 C-28.73417969 19.36749023 -28.73417969 19.36749023 -27.5703125 19.04101562 C-23.09852278 17.74959359 -19.14890433 16.15011607 -15 14 C-14.34 14 -13.68 14 -13 14 C-13 13.34 -13 12.68 -13 12 C-11.60243939 11.11374205 -10.20392877 10.2289483 -8.80078125 9.3515625 C-5.34955416 6.76127058 -2.72433721 3.32078973 0 0 Z " fill="#C74438" transform="translate(156,165)"/>
<path d="M0 0 C0.66 0.33 1.32 0.66 2 1 C1.67 1.66 1.34 2.32 1 3 C1.48833763 5.79050072 2.2535798 8.47609277 2.9921875 11.2109375 C3.74636817 14.04642296 4.42836068 16.86591495 5.0703125 19.7265625 C5.46264247 21.35959129 5.85586912 22.99240492 6.25 24.625 C6.41773926 25.4190625 6.58547852 26.213125 6.75830078 27.03125 C7.31650774 29.24303146 7.82318656 31.04363401 9 33 C12.5335711 34.64425697 12.5335711 34.64425697 16 35 C16 35.33 16 35.66 16 36 C8.25 36.125 8.25 36.125 6 35 C5.28171108 32.60067357 4.67586716 30.25097162 4.125 27.8125 C3.11754238 23.50433141 2.10727631 19.22301373 0.78125 15 C0.3996875 13.783125 0.018125 12.56625 -0.375 11.3125 C-0.73335938 10.21550781 -1.09171875 9.11851562 -1.4609375 7.98828125 C-2.07571285 4.58028746 -1.58355189 3.02671797 0 0 Z " fill="#873B32" transform="translate(101,188)"/>
<path d="M0 0 C0.495 0.99 0.495 0.99 1 2 C1.66 2.33 2.32 2.66 3 3 C0.57961771 5.83894927 0.18510281 5.98353514 -3.82885742 6.34057617 C-5.42114021 6.34010179 -7.01347267 6.32318775 -8.60546875 6.29296875 C-9.44467361 6.28872391 -10.28387848 6.28447906 -11.14851379 6.28010559 C-13.82850245 6.26331464 -16.5077387 6.2256623 -19.1875 6.1875 C-21.00454643 6.17245367 -22.82160465 6.15876518 -24.63867188 6.14648438 C-29.09273776 6.11340982 -33.54624132 6.06162513 -38 6 C-37.67 4.68 -37.34 3.36 -37 2 C-36.67 2.33 -36.34 2.66 -36 3 C-33.33573315 3.16003488 -30.69439572 3.25942889 -28.02734375 3.31640625 C-27.22970108 3.33718735 -26.43205841 3.35796844 -25.61024475 3.37937927 C-23.05275389 3.44496158 -20.4951572 3.50379967 -17.9375 3.5625 C-16.20767118 3.60567699 -14.47785321 3.64929101 -12.74804688 3.69335938 C-8.4988074 3.80065172 -4.2494611 3.90189426 0 4 C0 2.68 0 1.36 0 0 Z " fill="#714842" transform="translate(242,271)"/>
<path d="M0 0 C0.66 1.32 1.32 2.64 2 4 C1.34 4 0.68 4 0 4 C-0.08564209 4.78238037 -0.17128418 5.56476074 -0.25952148 6.37084961 C-0.64767444 9.89358015 -1.0424957 13.41553141 -1.4375 16.9375 C-1.57220703 18.16919922 -1.70691406 19.40089844 -1.84570312 20.66992188 C-1.97783203 21.83974609 -2.10996094 23.00957031 -2.24609375 24.21484375 C-2.36654053 25.29886475 -2.4869873 26.38288574 -2.61108398 27.49975586 C-3 30 -3 30 -4 31 C-4.36162029 32.32594105 -4.69728039 33.65938457 -5 35 C-8.49766714 24.50699858 -5.65933146 12.08319434 -2 2 C-1.34 1.34 -0.68 0.68 0 0 Z " fill="#9A5E59" transform="translate(81,107)"/>
<path d="M0 0 C0.66 0.33 1.32 0.66 2 1 C-0.24619578 4.83596905 -2.39468803 7.5329177 -6.765625 8.8046875 C-8.94523231 9.11069148 -11.13112002 9.37404827 -13.3203125 9.6015625 C-17.38517246 10.04170657 -21.31403089 10.79125027 -25.3125 11.625 C-27.22482422 12.01558594 -27.22482422 12.01558594 -29.17578125 12.4140625 C-30.10777344 12.60742188 -31.03976563 12.80078125 -32 13 C-32 12.34 -32 11.68 -32 11 C-29.18831904 10.20532858 -26.37571498 9.41420767 -23.5625 8.625 C-22.77939453 8.40328125 -21.99628906 8.1815625 -21.18945312 7.953125 C-16.46310108 6.63052443 -11.75224208 5.48027558 -6.93164062 4.55273438 C-4.04035442 3.7253997 -2.13044941 2.06172523 0 0 Z " fill="#541F1B" transform="translate(181,102)"/>
<path d="M0 0 C0.33 0.99 0.66 1.98 1 3 C1.66 3.33 2.32 3.66 3 4 C0.525 5.485 0.525 5.485 -2 7 C5.26 7 12.52 7 20 7 C19.01 8.485 19.01 8.485 18 10 C15.56982422 10.34057617 15.56982422 10.34057617 12.5546875 10.29296875 C11.47832031 10.28330078 10.40195312 10.27363281 9.29296875 10.26367188 C8.16503906 10.23853516 7.03710938 10.21339844 5.875 10.1875 C4.73933594 10.17396484 3.60367188 10.16042969 2.43359375 10.14648438 C-0.37807387 10.11104319 -3.18880417 10.06163517 -6 10 C-4.6262658 7.10385907 -3.25606768 5.25606768 -1 3 C-0.67 2.01 -0.34 1.02 0 0 Z " fill="#483F41" transform="translate(249,99)"/>
<path d="M0 0 C0.66 0 1.32 0 2 0 C2 4.95 2 9.9 2 15 C-2.45435288 13.88641178 -4.28031048 12.37021376 -7.75 9.4375 C-8.73484375 8.61121094 -9.7196875 7.78492188 -10.734375 6.93359375 C-11.48203125 6.29550781 -12.2296875 5.65742188 -13 5 C-12.34 4.67 -11.68 4.34 -11 4 C-10.0925 4.61875 -9.185 5.2375 -8.25 5.875 C-4.95501152 8.11846968 -4.95501152 8.11846968 -1 10 C-0.67 6.7 -0.34 3.4 0 0 Z " fill="#3A100E" transform="translate(204,219)"/>
<path d="M0 0 C3.63 0.33 7.26 0.66 11 1 C11 1.66 11 2.32 11 3 C11.68964844 3.02578125 12.37929687 3.0515625 13.08984375 3.078125 C19.83780068 3.48540909 25.03075996 4.83114418 31 8 C26.99122478 9.33625841 23.96612325 8.2511155 20 7.25 C18.86510132 6.9730127 18.86510132 6.9730127 17.70727539 6.69042969 C11.77700061 5.23070853 5.87338958 3.67448688 0 2 C0 1.34 0 0.68 0 0 Z " fill="#63221D" transform="translate(82,107)"/>
<path d="M0 0 C0.33 0 0.66 0 1 0 C2.01196776 3.97427339 2.80128193 7.43625257 0.87109375 11.203125 C-0.66945969 13.22630796 -2.29528084 15.11410296 -4 17 C-4.680625 17.94875 -5.36125 18.8975 -6.0625 19.875 C-8.22530541 22.24710915 -9.95777343 23.07043077 -13 24 C-10.35555556 19.34074074 -10.35555556 19.34074074 -8.5 17.5625 C-6.75611976 15.9086804 -6.75611976 15.9086804 -5.5 12.875 C-4 10 -4 10 -1 9 C-0.67 6.03 -0.34 3.06 0 0 Z " fill="#1D0908" transform="translate(190,165)"/>
<path d="M0 0 C-1 2 -1 2 -2.76245117 2.68603516 C-3.51502197 2.88503418 -4.26759277 3.0840332 -5.04296875 3.2890625 C-5.86990234 3.50820312 -6.69683594 3.72734375 -7.54882812 3.953125 C-8.41958984 4.17484375 -9.29035156 4.3965625 -10.1875 4.625 C-11.03892578 4.85445312 -11.89035156 5.08390625 -12.76757812 5.3203125 C-17.27872263 6.49258207 -21.29742061 7.29246811 -26 7 C-24 4 -24 4 -21.64453125 3.33984375 C-20.24267578 3.14068359 -20.24267578 3.14068359 -18.8125 2.9375 C-15.46973063 2.41819249 -12.44475711 1.83615783 -9.1875 0.875 C-5.9722454 -0.00761891 -3.31580689 -0.16174668 0 0 Z " fill="#4E241E" transform="translate(127,184)"/>
<path d="M0 0 C8.97218625 1.98463106 16.23650528 6.29044484 24 11 C24 11.66 24 12.32 24 13 C24.7425 13.2475 25.485 13.495 26.25 13.75 C29.20124062 15.09147301 30.84814974 16.60905526 33 19 C29.00118212 18.38479725 26.19641774 16.39731331 23 14 C23 13.34 23 12.68 23 12 C22.175 11.7525 21.35 11.505 20.5 11.25 C16.47626529 9.81295189 12.78020976 7.97645485 9 6 C9 5.34 9 4.68 9 4 C4.545 3.01 4.545 3.01 0 2 C0 1.34 0 0.68 0 0 Z " fill="#CA473C" transform="translate(164,210)"/>
<path d="M0 0 C0 3 0 3 -1.72265625 4.75390625 C-8.6727558 10.12601993 -14.21942029 12.16407773 -22.984375 12.36328125 C-25.50507594 11.90896887 -26.38732652 10.93418749 -28 9 C-26.97519531 9.03480469 -25.95039062 9.06960937 -24.89453125 9.10546875 C-23.53387064 9.13362035 -22.1731922 9.16091904 -20.8125 9.1875 C-20.13896484 9.21263672 -19.46542969 9.23777344 -18.77148438 9.26367188 C-14.24249411 9.32994978 -11.69066373 8.57064512 -8 6 C-7.34 6 -6.68 6 -6 6 C-6 5.34 -6 4.68 -6 4 C-4.02709413 1.65130253 -2.99693138 0.99897713 0 0 Z " fill="#4C1C15" transform="translate(142,122)"/>
<path d="M0 0 C0.33 0.99 0.66 1.98 1 3 C0.67 3.66 0.34 4.32 0 5 C-0.50070321 8.37357334 -0.50070321 8.37357334 0 12 C2.31273442 14.8971941 2.31273442 14.8971941 5 17 C5.33 17.33 5.66 17.66 6 18 C8.18639453 18.07258946 10.37500389 18.08373783 12.5625 18.0625 C13.76003906 18.05347656 14.95757812 18.04445312 16.19140625 18.03515625 C17.58166016 18.01775391 17.58166016 18.01775391 19 18 C15.46763908 20.35490728 13.75279632 20.32743705 9.5625 20.375 C8.42941406 20.40335938 7.29632813 20.43171875 6.12890625 20.4609375 C3 20 3 20 0.66796875 18.3984375 C-1.45914488 15.33977761 -1.80792564 12.93395303 -2.25 9.25 C-2.39953125 8.07953125 -2.5490625 6.9090625 -2.703125 5.703125 C-2.80109375 4.81109375 -2.8990625 3.9190625 -3 3 C-2.01 2.67 -1.02 2.34 0 2 C0 1.34 0 0.68 0 0 Z " fill="#CA473B" transform="translate(112,116)"/>
<path d="M0 0 C2.28304899 0.0179485 4.52425196 0.11763285 6.796875 0.33203125 C6.796875 1.65203125 6.796875 2.97203125 6.796875 4.33203125 C-1.23883929 6.60881696 -1.23883929 6.60881696 -5.203125 5.33203125 C-4.06475685 2.29638286 -3.36675282 0.50740069 0 0 Z " fill="#4D4C4B" transform="translate(160.203125,104.66796875)"/>
<path d="M0 0 C0.99 0.66 1.98 1.32 3 2 C-1.84060277 5.06242216 -5.29290936 6.53411505 -11 7 C-11 5.68 -11 4.36 -11 3 C-7.57910017 0.89483087 -4.95715833 0.91206315 -1 1 C-0.67 0.67 -0.34 0.34 0 0 Z " fill="#474242" transform="translate(135,177)"/>
<path d="M0 0 C0.66 0.33 1.32 0.66 2 1 C1.360625 1.45375 0.72125 1.9075 0.0625 2.375 C-2.09702406 3.83921726 -2.09702406 3.83921726 -3 6 C-4.175625 5.9690625 -4.175625 5.9690625 -5.375 5.9375 C-7.98114961 5.81315937 -7.98114961 5.81315937 -10 7 C-12.204364 7.22950319 -14.41392173 7.41075933 -16.625 7.5625 C-17.81351562 7.64628906 -19.00203125 7.73007813 -20.2265625 7.81640625 C-21.14179687 7.87699219 -22.05703125 7.93757812 -23 8 C-22.67 7.34 -22.34 6.68 -22 6 C-19.83224842 5.43820821 -17.63843056 4.9756121 -15.4375 4.5625 C-11.21766742 3.72369536 -7.24091284 2.86554512 -3.25 1.25 C-1.64125 0.63125 -1.64125 0.63125 0 0 Z " fill="#7A7A79" transform="translate(143,172)"/>
<path d="M0 0 C0.33 0 0.66 0 1 0 C1.3730532 4.18439096 1.66251221 8.37061291 1.9375 12.5625 C2.09702148 14.33463867 2.09702148 14.33463867 2.25976562 16.14257812 C2.76980933 24.81332118 2.76980933 24.81332118 0.44189453 28.40185547 C-1.28691777 30.13066777 -2.99045434 31.61241848 -5 33 C-5.33 32.01 -5.66 31.02 -6 30 C-5.34 30 -4.68 30 -4 30 C-4 29.01 -4 28.02 -4 27 C-3.01 26.67 -2.02 26.34 -1 26 C-0.67 17.42 -0.34 8.84 0 0 Z " fill="#932920" transform="translate(272,107)"/>
<path d="M0 0 C0.66 0 1.32 0 2 0 C5 5.75 5 5.75 5 8 C12.92 8 20.84 8 29 8 C29 8.33 29 8.66 29 9 C20.42 9 11.84 9 3 9 C2.01 6.03 1.02 3.06 0 0 Z " fill="#53120E" transform="translate(238,101)"/>
<path d="M0 0 C0.66 0.33 1.32 0.66 2 1 C1.01 1.33 0.02 1.66 -1 2 C-1 2.66 -1 3.32 -1 4 C-2.98 4.66 -4.96 5.32 -7 6 C-7 6.99 -7 7.98 -7 9 C-8.98 9 -10.96 9 -13 9 C-13.33 8.01 -13.66 7.02 -14 6 C-11.03 5.34 -8.06 4.68 -5 4 C-5 3.34 -5 2.68 -5 2 C-2.625 0.9375 -2.625 0.9375 0 0 Z " fill="#4D1514" transform="translate(166,197)"/>
<path d="M0 0 C0.66 0.33 1.32 0.66 2 1 C1.67 1.66 1.34 2.32 1 3 C1.32444837 5.0230652 1.32444837 5.0230652 1.9375 7.25 C2.82106536 10.92065074 3.19462968 14.2047213 3 18 C0.29846493 13.9476974 -1.09406063 9.78092376 -2 5 C-1.1875 1.875 -1.1875 1.875 0 0 Z " fill="#7E4E48" transform="translate(101,188)"/>
<path d="M0 0 C-1 1 -1 1 -4.375 1.1875 C-6.169375 1.5896875 -6.169375 1.5896875 -8 2 C-9.03291676 3.98320018 -10.0337499 5.98347806 -11 8 C-14.1875 8.875 -14.1875 8.875 -17 9 C-16.04270084 7.87411986 -15.08412105 6.7493285 -14.125 5.625 C-13.59132812 4.99851562 -13.05765625 4.37203125 -12.5078125 3.7265625 C-8.77873816 -0.54351744 -5.55007735 -1.85002578 0 0 Z " fill="#7F7E7E" transform="translate(166,104)"/>
<path d="M0 0 C0.33 0 0.66 0 1 0 C1 3.96 1 7.92 1 12 C-0.65 12 -2.3 12 -4 12 C-4 11.34 -4 10.68 -4 10 C-4.99 10 -5.98 10 -7 10 C-7 9.01 -7 8.02 -7 7 C-7.99 7 -8.98 7 -10 7 C-10 6.34 -10 5.68 -10 5 C-6.40608886 6.33488128 -3.24509304 7.96022723 0 10 C0 6.7 0 3.4 0 0 Z " fill="#CB4235" transform="translate(207,225)"/>
<path d="M0 0 C6.81520452 0.29631324 11.38350782 3.30464197 17 7 C16.01 7.66 15.02 8.32 14 9 C13.34 8.67 12.68 8.34 12 8 C12 7.34 12 6.68 12 6 C10.700625 5.5978125 10.700625 5.5978125 9.375 5.1875 C6.08208036 4.02888013 3.08872125 2.61790161 0 1 C0 0.67 0 0.34 0 0 Z " fill="#854642" transform="translate(161,240)"/>
<path d="M0 0 C0.66 0 1.32 0 2 0 C2.33 1.32 2.66 2.64 3 4 C3.66 4 4.32 4 5 4 C5.70088156 5.74468372 6.38524009 7.49601161 7.0625 9.25 C7.44535156 10.22453125 7.82820312 11.1990625 8.22265625 12.203125 C9.01113787 15.04007395 9.02437812 16.29409552 8 19 C7.84144531 18.443125 7.68289062 17.88625 7.51953125 17.3125 C5.95959153 12.21037671 4.00428484 8.0328053 0.98828125 3.62890625 C0 2 0 2 0 0 Z " fill="#3B0C08" transform="translate(180,116)"/>
<path d="M0 0 C0.66 0.33 1.32 0.66 2 1 C-0.66666667 3.66666667 -3.33333333 6.33333333 -6 9 C-4.35 9.33 -2.7 9.66 -1 10 C-3.49092811 11.24546405 -4.41080733 10.7767578 -7 10 C-7 9.01 -7 8.02 -7 7 C-7.66 6.67 -8.32 6.34 -9 6 C-7.5459375 5.5978125 -7.5459375 5.5978125 -6.0625 5.1875 C-4.5465625 4.5996875 -4.5465625 4.5996875 -3 4 C-2.67 3.01 -2.34 2.02 -2 1 C-1.34 0.67 -0.68 0.34 0 0 Z " fill="#7B4A45" transform="translate(175,190)"/>
<path d="M0 0 C2.125 0.375 2.125 0.375 4 1 C1.40594881 3.87198525 -0.20339094 5.2881358 -4 6 C-5.3479743 6.63654342 -6.68596724 7.29605388 -8 8 C-8.66 7.34 -9.32 6.68 -10 6 C-9.44570312 5.73445312 -8.89140625 5.46890625 -8.3203125 5.1953125 C-7.59585938 4.84210938 -6.87140625 4.48890625 -6.125 4.125 C-5.40570313 3.77695313 -4.68640625 3.42890625 -3.9453125 3.0703125 C-1.84864981 2.03442457 -1.84864981 2.03442457 0 0 Z " fill="#45302D" transform="translate(149,169)"/>
<path d="M0 0 C0.66 0 1.32 0 2 0 C1.67 3.63 1.34 7.26 1 11 C0.67 11 0.34 11 0 11 C-0.33 8.69 -0.66 6.38 -1 4 C-1.45375 4.495 -1.9075 4.99 -2.375 5.5 C-4 7 -4 7 -6 7 C-6.33 7.99 -6.66 8.98 -7 10 C-7 9.01 -7 8.02 -7 7 C-7.66 6.67 -8.32 6.34 -9 6 C-8.2575 5.7525 -7.515 5.505 -6.75 5.25 C-3.79396573 3.90634806 -2.23312872 2.31013315 0 0 Z " fill="#2A2422" transform="translate(120,108)"/>
<path d="M0 0 C3.63 0 7.26 0 11 0 C8.9957983 4.0084034 7.50944037 5.41409657 4 8 C4.66 5.69 5.32 3.38 6 1 C4.02 1 2.04 1 0 1 C0 0.67 0 0.34 0 0 Z " fill="#694C4B" transform="translate(263,102)"/>
<path d="M0 0 C0.66 0.33 1.32 0.66 2 1 C0.30113087 3.76929481 -1.38289614 6.04739517 -4 8 C-7.48547038 8.32157614 -10.60634446 7.79811267 -14 7 C-11.65746174 5.7832937 -9.53525597 4.85476749 -7 4.0625 C-4.14035094 3.04970763 -2.29657465 1.94325547 0 0 Z " fill="#2E292B" transform="translate(181,102)"/>
<path d="M0 0 C1 2 1 2 0.375 4.8125 C-1.20366732 8.47213787 -2.94399797 10.46575441 -6 13 C-6.99 13 -7.98 13 -9 13 C-8.60167969 12.56429687 -8.20335937 12.12859375 -7.79296875 11.6796875 C-4.51063169 7.99005314 -2.00600254 4.56922802 0 0 Z " fill="#59231D" transform="translate(186,175)"/>
<path d="M0 0 C0.66 0.33 1.32 0.66 2 1 C1.4409112 4.24271506 0.5867822 5.93057424 -2 8 C-2.66 8 -3.32 8 -4 8 C-4.33 8.66 -4.66 9.32 -5 10 C-5 4.69520066 -3.4637943 3.81017373 0 0 Z " fill="#3B3B3B" transform="translate(122,122)"/>
<path d="M0 0 C0.99 0.33 1.98 0.66 3 1 C3.6875 3.0625 3.6875 3.0625 4 5 C2.68 5 1.36 5 0 5 C-2.22743787 6.41977909 -2.22743787 6.41977909 -4 8 C-4.66 7.34 -5.32 6.68 -6 6 C-5.195625 5.38125 -4.39125 4.7625 -3.5625 4.125 C-0.96125481 2.25835959 -0.96125481 2.25835959 0 0 Z " fill="#1D1C1D" transform="translate(242,84)"/>
<path d="M0 0 C7.42857143 -0.28571429 7.42857143 -0.28571429 11 2 C11 2.66 11 3.32 11 4 C13.97 4.495 13.97 4.495 17 5 C16.67 5.66 16.34 6.32 16 7 C10.72 5.02 5.44 3.04 0 1 C0 0.67 0 0.34 0 0 Z " fill="#6E2420" transform="translate(155,206)"/>
<path d="M0 0 C1.32 0.33 2.64 0.66 4 1 C3.01 1.33 2.02 1.66 1 2 C1 2.66 1 3.32 1 4 C-0.65 4.33 -2.3 4.66 -4 5 C-4 5.66 -4 6.32 -4 7 C-5.65 7.33 -7.3 7.66 -9 8 C-9 7.34 -9 6.68 -9 6 C-8.01 6 -7.02 6 -6 6 C-5.67 5.01 -5.34 4.02 -5 3 C-3.35 3 -1.7 3 0 3 C0 2.01 0 1.02 0 0 Z " fill="#CD463D" transform="translate(165,194)"/>
<path d="M0 0 C2 2 2 2 2.9375 5.3125 C3.82228763 8.97684037 3.82228763 8.97684037 5.6875 11.8125 C6.3371875 12.8953125 6.3371875 12.8953125 7 14 C6.67 14.66 6.34 15.32 6 16 C2.11736749 12.76447291 1.03257023 9.9047086 0 5 C-0.125 2.0625 -0.125 2.0625 0 0 Z " fill="#DA4940" transform="translate(79,136)"/>
<path d="M0 0 C0.66 0 1.32 0 2 0 C1.85691406 0.69480469 1.71382813 1.38960938 1.56640625 2.10546875 C0.96733421 5.16693345 0.44485302 8.23455833 -0.0625 11.3125 C-0.23910156 12.38113281 -0.41570312 13.44976562 -0.59765625 14.55078125 C-0.73042969 15.35902344 -0.86320312 16.16726562 -1 17 C-1.33 17 -1.66 17 -2 17 C-2.22084624 10.90218999 -2.01167675 5.78357065 0 0 Z " fill="#DD4A3F" transform="translate(81,111)"/>
<path d="M0 0 C3.59905908 0.55550695 4.99909799 1.74887248 7.25 4.5625 C8.03117188 5.52349609 8.03117188 5.52349609 8.828125 6.50390625 C9.21484375 6.99761719 9.6015625 7.49132812 10 8 C9.34 8.66 8.68 9.32 8 10 C6.66370254 8.52351062 5.33103329 7.0437367 4 5.5625 C3.2575 4.73878906 2.515 3.91507812 1.75 3.06640625 C0 1 0 1 0 0 Z " fill="#834946" transform="translate(195,265)"/>
<path d="M0 0 C5.93002267 -0.37851209 10.47239641 0.89424625 16 3 C16 3.33 16 3.66 16 4 C10.39538469 3.57910004 5.27913453 3.08386889 0 1 C0 0.67 0 0.34 0 0 Z " fill="#7B2F2B" transform="translate(118,224)"/>
<path d="M0 0 C0.29296875 5.95703125 0.29296875 5.95703125 0 8 C-0.99 8.99 -1.98 9.98 -3 11 C-3 7.7 -3 4.4 -3 1 C-1 0 -1 0 0 0 Z " fill="#EFEEEC" transform="translate(204,138)"/>
<path d="M0 0 C1.02673828 0.24556641 1.02673828 0.24556641 2.07421875 0.49609375 C5.3743278 1.06447034 8.46554069 1.09630767 11.8125 1.0625 C13.55466797 1.04896484 13.55466797 1.04896484 15.33203125 1.03515625 C16.21246094 1.02355469 17.09289062 1.01195312 18 1 C14.40389031 3.39740646 12.69907673 3.23987692 8.4375 3.1875 C7.28121094 3.18105469 6.12492187 3.17460937 4.93359375 3.16796875 C2 3 2 3 0 2 C0 1.34 0 0.68 0 0 Z " fill="#DF4D41" transform="translate(113,133)"/>
<path d="M0 0 C0.66 0 1.32 0 2 0 C2.33 1.32 2.66 2.64 3 4 C5.31 4.66 7.62 5.32 10 6 C10 6.33 10 6.66 10 7 C2.25 7.125 2.25 7.125 0 6 C0 4.02 0 2.04 0 0 Z " fill="#773631" transform="translate(107,217)"/>
<path d="M0 0 C-1.40751221 0.86916887 -2.8264521 1.71985149 -4.25 2.5625 C-5.03890625 3.03816406 -5.8278125 3.51382813 -6.640625 4.00390625 C-9.30844625 5.13022151 -10.34501768 5.0169313 -13 4 C-11.40233897 3.13372601 -9.79660056 2.28233535 -8.1875 1.4375 C-7.29417969 0.96183594 -6.40085938 0.48617187 -5.48046875 -0.00390625 C-3 -1 -3 -1 0 0 Z " fill="#D7493F" transform="translate(148,154)"/>
<path d="M0 0 C0.33 0.99 0.66 1.98 1 3 C-2.91176471 8.58823529 -2.91176471 8.58823529 -6.3125 9.875 C-6.869375 9.91625 -7.42625 9.9575 -8 10 C-7.67 9.34 -7.34 8.68 -7 8 C-6.34 8 -5.68 8 -5 8 C-4.731875 7.236875 -4.46375 6.47375 -4.1875 5.6875 C-3.05575888 3.12619116 -2.08776599 1.80307062 0 0 Z " fill="#7B4E49" transform="translate(148,113)"/>
<path d="M0 0 C3.1875 -0.4375 3.1875 -0.4375 7 0 C9.11158381 2.08545034 10.56739143 4.41206193 12 7 C10.35 6.67 8.7 6.34 7 6 C7 5.01 7 4.02 7 3 C6.34 3 5.68 3 5 3 C5 2.34 5 1.68 5 1 C3.35 1 1.7 1 0 1 C0 0.67 0 0.34 0 0 Z " fill="#B84036" transform="translate(168,110)"/>
<path d="M0 0 C0.99 0.66 1.98 1.32 3 2 C-0.13498292 3.85776765 -2.37471432 4.20140476 -6 4 C-6.33 3.01 -6.66 2.02 -7 1 C-5.5459375 1.0309375 -5.5459375 1.0309375 -4.0625 1.0625 C-1.12534105 1.35618499 -1.12534105 1.35618499 0 0 Z " fill="#4D4848" transform="translate(135,177)"/>
<path d="M0 0 C0 0.66 0 1.32 0 2 C-2.9826906 3.52448631 -5.818202 4.93940067 -9 6 C-9 5.01 -9 4.02 -9 3 C-8.01 3 -7.02 3 -6 3 C-6 2.34 -6 1.68 -6 1 C-4 0 -4 0 0 0 Z " fill="#D3463A" transform="translate(157,147)"/>
<path d="M0 0 C-0.99 0.33 -1.98 0.66 -3 1 C-3.33 1.66 -3.66 2.32 -4 3 C-3.34 3.33 -2.68 3.66 -2 4 C-3.65 4 -5.3 4 -7 4 C-7 2.68 -7 1.36 -7 0 C-3.86650268 -1.04449911 -3.01031744 -0.93423645 0 0 Z " fill="#504346" transform="translate(166,202)"/>
<path d="M0 0 C0.66 0 1.32 0 2 0 C1.67 0.598125 1.34 1.19625 1 1.8125 C-0.20787988 4.05386471 -0.20787988 4.05386471 0 7 C-1.65 7 -3.3 7 -5 7 C-5 6.34 -5 5.68 -5 5 C-4.34 5 -3.68 5 -3 5 C-2.67 4.01 -2.34 3.02 -2 2 C-1.34 2 -0.68 2 0 2 C0 1.34 0 0.68 0 0 Z " fill="#BD4B3E" transform="translate(178,184)"/>
<path d="M0 0 C0.66 0 1.32 0 2 0 C0.4169423 4.2742558 -2.50568404 6.26531794 -6 9 C-6 8.01 -6 7.02 -6 6 C-5.34 6 -4.68 6 -4 6 C-4 5.01 -4 4.02 -4 3 C-3.01 2.67 -2.02 2.34 -1 2 C-0.67 1.34 -0.34 0.68 0 0 Z " fill="#6A2B28" transform="translate(272,131)"/>
<path d="M0 0 C1.22589844 0.29197266 1.22589844 0.29197266 2.4765625 0.58984375 C3.41628906 0.82380859 3.41628906 0.82380859 4.375 1.0625 C1.375 3.0625 1.375 3.0625 -1.125 2.8125 C-3.625 2.0625 -3.625 2.0625 -6.625 0.0625 C-3.99249612 -1.25375194 -2.82320944 -0.68563658 0 0 Z " fill="#8B453D" transform="translate(138.625,227.9375)"/>
<path d="M0 0 C0.33 0 0.66 0 1 0 C1 4.29 1 8.58 1 13 C-0.32 12.34 -1.64 11.68 -3 11 C-2.34 10.67 -1.68 10.34 -1 10 C-0.53248212 7.64400765 -0.53248212 7.64400765 -0.375 4.9375 C-0.30023438 4.01839844 -0.22546875 3.09929687 -0.1484375 2.15234375 C-0.09945312 1.44207031 -0.05046875 0.73179687 0 0 Z " fill="#2B2726" transform="translate(204,219)"/>
<path d="M0 0 C3.63 0.33 7.26 0.66 11 1 C11 1.33 11 1.66 11 2 C3.57142857 3.28571429 3.57142857 3.28571429 0 2 C0 1.34 0 0.68 0 0 Z " fill="#4E2929" transform="translate(82,107)"/>
<path d="M0 0 C0.33 0 0.66 0 1 0 C1.375 2.6875 1.375 2.6875 1 6 C-0.823983 8.06398076 -2.72763839 9.39041053 -5 11 C-4.1875 8.5625 -4.1875 8.5625 -3 6 C-2.01 5.67 -1.02 5.34 0 5 C0 3.35 0 1.7 0 0 Z " fill="#191719" transform="translate(248,96)"/>
<path d="M0 0 C4.24822374 0.47202486 6.19989709 2.96655518 9 6 C5.06326356 4.68775452 2.77280706 3.08089673 0 0 Z " fill="#742E28" transform="translate(176,248)"/>
<path d="M0 0 C6.52307692 0.61538462 6.52307692 0.61538462 8.9375 2.5625 C9.288125 3.036875 9.63875 3.51125 10 4 C6.44219804 3.39009109 3.3171411 2.4216319 0 1 C0 0.67 0 0.34 0 0 Z " fill="#7D4C48" transform="translate(161,240)"/>
<path d="M0 0 C0.66 0 1.32 0 2 0 C5 5.75 5 5.75 5 8 C4.01 7.67 3.02 7.34 2 7 C0.8125 3.4375 0.8125 3.4375 0 0 Z " fill="#370C07" transform="translate(238,101)"/>
<path d="M0 0 C0.99 0.495 0.99 0.495 2 1 C2.40729228 3.32156597 2.74438677 5.6568787 3 8 C2.01 7.67 1.02 7.34 0 7 C0 4.69 0 2.38 0 0 Z " fill="#B33E32" transform="translate(236,97)"/>
</svg>
